G75*
%MOIN*%
%OFA0B0*%
%FSLAX24Y24*%
%IPPOS*%
%LPD*%
%AMOC8*
5,1,8,0,0,1.08239X$1,22.5*
%
%ADD10C,0.0680*%
%ADD11OC8,0.0680*%
%ADD12C,0.0595*%
D10*
X001517Y006800D02*
X001517Y007400D01*
X002517Y007400D02*
X002517Y006800D01*
X003517Y006800D02*
X003517Y007400D01*
X003517Y010300D02*
X003517Y010900D01*
X002517Y010900D02*
X002517Y010300D01*
X001517Y010300D02*
X001517Y010900D01*
X007017Y010900D02*
X007017Y010300D01*
X008017Y010300D02*
X008017Y010900D01*
D11*
X001517Y001100D03*
X002517Y001100D03*
X002517Y002100D03*
X001517Y002100D03*
X001517Y003100D03*
X002517Y003100D03*
X002517Y004100D03*
X001517Y004100D03*
D12*
X006517Y002100D03*
X007517Y002100D03*
X008517Y002100D03*
X009517Y002100D03*
X010517Y002100D03*
X011517Y002100D03*
X012517Y002100D03*
X013517Y002100D03*
X014517Y002100D03*
X015517Y002100D03*
X016517Y002100D03*
X017517Y002100D03*
X018267Y002600D03*
X018267Y003600D03*
X018267Y004600D03*
X018267Y005600D03*
X018267Y006600D03*
X018267Y007600D03*
X017517Y008100D03*
X016517Y008100D03*
X015517Y008100D03*
X014517Y008100D03*
X013517Y008100D03*
X012517Y008100D03*
X011517Y008100D03*
X010517Y008100D03*
X009517Y008100D03*
X008517Y008100D03*
X007517Y008100D03*
X006517Y008100D03*
M02*
