%
M48
M72
T01C0.0315
T02C0.0400
%
T01
X6517Y2100
X7517Y2100
X8517Y2100
X9517Y2100
X10517Y2100
X11517Y2100
X12517Y2100
X13517Y2100
X14517Y2100
X15517Y2100
X16517Y2100
X17517Y2100
X18267Y2600
X18267Y3600
X18267Y4600
X18267Y5600
X18267Y6600
X18267Y7600
X17517Y8100
X16517Y8100
X15517Y8100
X14517Y8100
X13517Y8100
X12517Y8100
X11517Y8100
X10517Y8100
X9517Y8100
X8517Y8100
X7517Y8100
X6517Y8100
T02
X1517Y1100
X2517Y1100
X2517Y2100
X1517Y2100
X1517Y3100
X2517Y3100
X2517Y4100
X1517Y4100
X1517Y7100
X2517Y7100
X3517Y7100
X3517Y10600
X2517Y10600
X1517Y10600
X7017Y10600
X8017Y10600
M30
