G75*
%MOIN*%
%OFA0B0*%
%FSLAX24Y24*%
%IPPOS*%
%LPD*%
%AMOC8*
5,1,8,0,0,1.08239X$1,22.5*
%
%ADD10C,0.0000*%
%ADD11C,0.0600*%
%ADD12OC8,0.0600*%
%ADD13C,0.0515*%
%ADD14C,0.0100*%
D10*
X000517Y000100D02*
X000517Y012096D01*
X019387Y012096D01*
X019387Y000100D01*
X000517Y000100D01*
D11*
X001517Y006800D02*
X001517Y007400D01*
X002517Y007400D02*
X002517Y006800D01*
X003517Y006800D02*
X003517Y007400D01*
X003517Y010300D02*
X003517Y010900D01*
X002517Y010900D02*
X002517Y010300D01*
X001517Y010300D02*
X001517Y010900D01*
X007017Y010900D02*
X007017Y010300D01*
X008017Y010300D02*
X008017Y010900D01*
D12*
X002517Y004100D03*
X001517Y004100D03*
X001517Y003100D03*
X002517Y003100D03*
X002517Y002100D03*
X001517Y002100D03*
X001517Y001100D03*
X002517Y001100D03*
D13*
X006517Y002100D03*
X007517Y002100D03*
X008517Y002100D03*
X009517Y002100D03*
X010517Y002100D03*
X011517Y002100D03*
X012517Y002100D03*
X013517Y002100D03*
X014517Y002100D03*
X015517Y002100D03*
X016517Y002100D03*
X017517Y002100D03*
X018267Y002600D03*
X018267Y003600D03*
X018267Y004600D03*
X018267Y005600D03*
X018267Y006600D03*
X018267Y007600D03*
X017517Y008100D03*
X016517Y008100D03*
X015517Y008100D03*
X014517Y008100D03*
X013517Y008100D03*
X012517Y008100D03*
X011517Y008100D03*
X010517Y008100D03*
X009517Y008100D03*
X008517Y008100D03*
X007517Y008100D03*
X006517Y008100D03*
D14*
X006457Y008020D01*
X006457Y006040D01*
X002517Y002100D01*
X001957Y001540D02*
X001517Y001100D01*
X001957Y001540D02*
X013567Y001540D01*
X014107Y002080D01*
X014467Y002080D01*
X014517Y002100D01*
X017077Y002170D02*
X011587Y007660D01*
X010327Y007660D01*
X009967Y008020D01*
X009967Y008200D01*
X008347Y009820D01*
X007807Y009820D01*
X007087Y010540D01*
X007017Y010600D01*
X006997Y010630D01*
X006277Y011350D01*
X003307Y011350D01*
X002587Y010630D01*
X002517Y010600D01*
X002497Y010540D01*
X002497Y007120D01*
X002517Y007100D01*
X001517Y007100D02*
X001507Y007120D01*
X001507Y010540D01*
X001517Y010600D01*
X003517Y010600D02*
X003577Y010540D01*
X005647Y010540D01*
X008077Y008110D01*
X008437Y008110D01*
X008517Y008100D01*
X008077Y010540D02*
X008017Y010600D01*
X008077Y010540D02*
X011677Y010540D01*
X014107Y008110D01*
X014467Y008110D01*
X014517Y008100D01*
X017077Y002170D02*
X017437Y002170D01*
X017517Y002100D01*
M02*
