G75*
%MOIN*%
%OFA0B0*%
%FSLAX24Y24*%
%IPPOS*%
%LPD*%
%AMOC8*
5,1,8,0,0,1.08239X$1,22.5*
%
%ADD10C,0.0060*%
D10*
X001017Y000850D02*
X001017Y001350D01*
X001267Y001600D01*
X002767Y001600D01*
X003017Y001850D01*
X003017Y002350D01*
X002767Y002600D01*
X001267Y002600D01*
X001017Y002850D01*
X001017Y003350D01*
X001267Y003600D01*
X001017Y003850D01*
X001017Y004350D01*
X001267Y004600D01*
X002767Y004600D01*
X003017Y004350D01*
X003017Y003850D01*
X002767Y003600D01*
X001267Y003600D01*
X001267Y002600D02*
X001017Y002350D01*
X001017Y001850D01*
X001267Y001600D01*
X001017Y000850D02*
X001267Y000600D01*
X002767Y000600D01*
X003017Y000850D01*
X003017Y001350D01*
X002767Y001600D01*
X002767Y002600D02*
X003017Y002850D01*
X003017Y003350D01*
X002767Y003600D01*
X006017Y004700D02*
X006017Y002100D01*
X018017Y002100D01*
X018017Y001600D01*
X006017Y001600D01*
X006017Y002100D01*
X006017Y004700D02*
X006056Y004702D01*
X006095Y004708D01*
X006133Y004717D01*
X006170Y004730D01*
X006206Y004747D01*
X006239Y004767D01*
X006271Y004791D01*
X006300Y004817D01*
X006326Y004846D01*
X006350Y004878D01*
X006370Y004911D01*
X006387Y004947D01*
X006400Y004984D01*
X006409Y005022D01*
X006415Y005061D01*
X006417Y005100D01*
X006415Y005139D01*
X006409Y005178D01*
X006400Y005216D01*
X006387Y005253D01*
X006370Y005289D01*
X006350Y005322D01*
X006326Y005354D01*
X006300Y005383D01*
X006271Y005409D01*
X006239Y005433D01*
X006206Y005453D01*
X006170Y005470D01*
X006133Y005483D01*
X006095Y005492D01*
X006056Y005498D01*
X006017Y005500D01*
X006017Y007600D01*
X018017Y007600D01*
X018017Y002100D01*
X018017Y007600D02*
X018017Y008600D01*
X006017Y008600D01*
X006017Y007600D01*
X004017Y007350D02*
X004017Y006850D01*
X003767Y006600D01*
X003267Y006600D01*
X003017Y006850D01*
X002767Y006600D01*
X002267Y006600D01*
X002017Y006850D01*
X001767Y006600D01*
X001267Y006600D01*
X001017Y006850D01*
X001017Y007350D01*
X001267Y007600D01*
X001767Y007600D01*
X002017Y007350D01*
X002267Y007600D01*
X002767Y007600D01*
X003017Y007350D01*
X003267Y007600D01*
X003767Y007600D01*
X004017Y007350D01*
X003017Y007350D02*
X003017Y006850D01*
X002017Y006850D02*
X002017Y007350D01*
X002267Y010100D02*
X002017Y010350D01*
X001767Y010100D01*
X001267Y010100D01*
X001017Y010350D01*
X001017Y010850D01*
X001267Y011100D01*
X001767Y011100D01*
X002017Y010850D01*
X002267Y011100D01*
X002767Y011100D01*
X003017Y010850D01*
X003267Y011100D01*
X003767Y011100D01*
X004017Y010850D01*
X004017Y010350D01*
X003767Y010100D01*
X003267Y010100D01*
X003017Y010350D01*
X002767Y010100D01*
X002267Y010100D01*
X002017Y010350D02*
X002017Y010850D01*
X003017Y010850D02*
X003017Y010350D01*
X006517Y010350D02*
X006767Y010100D01*
X007267Y010100D01*
X007517Y010350D01*
X007767Y010100D01*
X008267Y010100D01*
X008517Y010350D01*
X008517Y010850D01*
X008267Y011100D01*
X007767Y011100D01*
X007517Y010850D01*
X007517Y010350D01*
X007517Y010850D02*
X007267Y011100D01*
X006767Y011100D01*
X006517Y010850D01*
X006517Y010350D01*
M02*
