G75*
%MOIN*%
%OFA0B0*%
%FSLAX24Y24*%
%IPPOS*%
%LPD*%
%AMOC8*
5,1,8,0,0,1.08239X$1,22.5*
%
%ADD10C,0.0600*%
%ADD11OC8,0.0600*%
%ADD12C,0.0515*%
%ADD13C,0.0100*%
D10*
X001517Y006800D02*
X001517Y007400D01*
X002517Y007400D02*
X002517Y006800D01*
X003517Y006800D02*
X003517Y007400D01*
X003517Y010300D02*
X003517Y010900D01*
X002517Y010900D02*
X002517Y010300D01*
X001517Y010300D02*
X001517Y010900D01*
X007017Y010900D02*
X007017Y010300D01*
X008017Y010300D02*
X008017Y010900D01*
D11*
X001517Y001100D03*
X002517Y001100D03*
X002517Y002100D03*
X001517Y002100D03*
X001517Y003100D03*
X002517Y003100D03*
X002517Y004100D03*
X001517Y004100D03*
D12*
X006517Y002100D03*
X007517Y002100D03*
X008517Y002100D03*
X009517Y002100D03*
X010517Y002100D03*
X011517Y002100D03*
X012517Y002100D03*
X013517Y002100D03*
X014517Y002100D03*
X015517Y002100D03*
X016517Y002100D03*
X017517Y002100D03*
X018267Y002600D03*
X018267Y003600D03*
X018267Y004600D03*
X018267Y005600D03*
X018267Y006600D03*
X018267Y007600D03*
X017517Y008100D03*
X016517Y008100D03*
X015517Y008100D03*
X014517Y008100D03*
X013517Y008100D03*
X012517Y008100D03*
X011517Y008100D03*
X010517Y008100D03*
X009517Y008100D03*
X008517Y008100D03*
X007517Y008100D03*
X006517Y008100D03*
D13*
X006997Y008020D02*
X006097Y007120D01*
X003577Y007120D01*
X003517Y007100D01*
X001517Y007100D02*
X001507Y007030D01*
X001057Y006580D01*
X001057Y001900D01*
X001327Y001630D01*
X001597Y001630D01*
X002047Y001180D01*
X002497Y001180D01*
X002517Y001100D01*
X002677Y001630D02*
X002047Y001630D01*
X001597Y002080D01*
X001517Y002100D01*
X002047Y002620D02*
X001597Y003070D01*
X001517Y003100D01*
X002047Y002620D02*
X006547Y002620D01*
X006997Y002170D01*
X007447Y002170D01*
X007517Y002100D01*
X007987Y002080D02*
X007987Y002260D01*
X007177Y003070D01*
X002587Y003070D01*
X002517Y003100D01*
X002587Y004060D02*
X002517Y004100D01*
X002587Y004060D02*
X006547Y004060D01*
X008437Y002170D01*
X008517Y002100D01*
X008437Y001630D02*
X007987Y002080D01*
X008437Y001630D02*
X008617Y001630D01*
X009067Y002080D01*
X009517Y002080D01*
X009517Y002100D01*
X006517Y002100D02*
X006457Y002080D01*
X003127Y002080D01*
X002677Y001630D01*
X006997Y008020D02*
X007447Y008020D01*
X007517Y008100D01*
X008017Y010600D02*
X007267Y011350D01*
X002317Y011350D01*
X001597Y010630D01*
X001517Y010600D01*
M02*
